PathFileType	3	(X/Y/Z)	C:\Users\koon_\Desktop\
DataRate	CameraRate	NumFrames	NumMarkers	Units	OrigDataRate	OrigDataStartFrame	OrigNumFrames
100.0	100.0	5	27	mm	100.0	1	5176	
Frame#	Time	get:LFHD			get:RFHD			get:LBHD			get:RBHD			get:C7			get:T10			get:CLAV			get:STRN			get:RBAK			get:LSHO			get:LUPA			get:LELB			get:LFRA			get:LWRA			get:LWRB			get:LFIN			get:RSHO			get:RUPA			get:RELB			get:RFRA			get:RWRA			get:RWRB			get:RFIN			get:LASI			get:RASI			get:LPSI			get:RPSI			
		X1	Y1	Z1	X2	Y2	Z2	X3	Y3	Z3	X4	Y4	Z4	X5	Y5	Z5	X6	Y6	Z6	X7	Y7	Z7	X8	Y8	Z8	X9	Y9	Z9	X10	Y10	Z10	X11	Y11	Z11	X12	Y12	Z12	X13	Y13	Z13	X14	Y14	Z14	X15	Y15	Z15	X16	Y16	Z16	X17	Y17	Z17	X18	Y18	Z18	X19	Y19	Z19	X20	Y20	Z20	X21	Y21	Z21	X22	Y22	Z22	X23	Y23	Z23	X24	Y24	Z24	X25	Y25	Z25	X26	Y26	Z26	X27	Y27	Z27	
1	0	99.926796	1572.0015	-46.879589	-59.367565	1562.1294	-60.401318	101.91401	1561.1553	-171.60571	-23.335094	1563.7545	-198.36542	32.55447	1377.2659	-212.69077	39.243496	1118.0262	-253.59885	24.272232	1295.3932	-35.327713	34.568108	1106.4784	6.34023	-50.556835	1308.3497	-250.74255	192.23952	1361.6447	-114.01612	249.35262	1215.2104	-97.31884	277.58051	1034.1108	-119.00413	241.66742	937.90851	-45.533966	220.11795	843.13837	-30.475599	283.83963	837.84387	-59.107349	270.60663	762.40735	-11.742011	-126.4854	1357.8887	-137.56723	-194.97141	1140.3679	-113.33148	-209.46368	1034.8722	-159.41753	-194.45982	972.9245	-74.239914	-170.98267	820.33942	-44.259583	-226.63084	820.36188	-95.678474	-215.05219	754.25867	-30.407322	163.05052	929.71826	-49.684681	-115.04547	923.9325	-59.323318	84.477921	960.82166	-253.38832	-25.016645	954.78857	-258.07388
2	0.01	99.881401	1571.9358	-46.768669	-59.381405	1562.1743	-60.653973	102.13658	1561.1377	-171.46017	-22.66123	1563.3864	-198.03349	32.554634	1377.2662	-212.69135	39.264683	1118.0227	-253.67126	24.186203	1295.4263	-35.404991	34.491673	1106.4952	6.2606039	-50.547085	1308.381	-250.90256	192.23792	1361.6053	-114.02792	249.28984	1215.178	-97.339737	277.53415	1034.0989	-119.03346	241.649	937.8725	-45.630791	220.05721	843.06207	-30.558802	283.77185	837.81885	-59.189972	270.74197	762.55115	-11.931864	-126.50153	1357.8959	-137.68953	-194.98367	1140.3708	-113.43546	-209.45679	1034.8792	-159.50198	-194.47862	972.9314	-74.308609	-171.00752	820.35553	-44.31469	-226.64816	820.37115	-95.788521	-215.07877	754.2561	-30.512989	163.05069	929.7113	-49.699619	-115.06878	923.93237	-59.323196	84.499931	960.82874	-253.41034	-24.995787	954.77582	-258.08813
3	0.02	99.846939	1571.8557	-46.647949	-59.34148	1562.2301	-60.820992	102.37747	1561.1176	-171.33064	-22.396374	1563.4875	-198.20937	32.420128	1377.1356	-212.72214	39.291962	1118.0239	-253.67087	23.386166	1295.3629	-35.536091	34.439426	1106.4805	6.1955318	-50.493881	1308.3528	-250.93282	192.2207	1361.5922	-114.08408	249.28822	1215.1515	-97.384354	277.49265	1034.0592	-119.08195	241.5999	937.81268	-45.686085	220.00726	843.04211	-30.625654	283.72943	837.78314	-59.303493	270.71048	762.50983	-12.028997	-126.51934	1357.9047	-137.78799	-194.99207	1140.3888	-113.545	-209.45505	1034.8981	-159.62512	-194.49686	972.95276	-74.387077	-171.04004	820.37286	-44.416451	-226.64659	820.35321	-95.812721	-215.0851	754.30127	-30.536375	163.02992	929.7146	-49.685925	-115.09151	923.9444	-59.363964	84.534477	960.80042	-253.3586	-25.015339	954.77527	-258.12585
4	0.03	99.850494	1571.7789	-46.514004	-59.29134	1562.2692	-60.993797	102.63483	1561.0959	-171.20941	-22.117107	1563.5292	-198.26895	32.434326	1377.052	-212.71292	39.310127	1117.9791	-253.69931	23.311518	1295.3345	-35.52631	34.391331	1106.4916	6.1755199	-50.490189	1308.322	-251.00417	192.20613	1361.5908	-114.08461	249.27043	1215.1322	-97.399185	277.4646	1034.0515	-119.0943	241.52679	937.7843	-45.737305	219.97092	842.96228	-30.73547	283.6716	837.73083	-59.363148	270.65808	762.44159	-12.158076	-126.5258	1357.9014	-137.94452	-195.01288	1140.4115	-113.62383	-210.1718	1034.6444	-159.06642	-194.53096	972.95319	-74.493912	-171.08939	820.39386	-44.458385	-226.69664	820.3924	-95.878044	-215.16449	754.28796	-30.632448	162.97536	929.71344	-49.731983	-115.14352	923.93402	-59.405689	84.560303	960.78278	-253.43114	-24.965555	954.78088	-258.1463
5	0.04	99.850937	1571.712	-46.428497	-59.481056	1562.3016	-60.582947	102.84947	1561.0685	-171.10175	-21.874159	1563.6088	-198.36375	32.460899	1377.1234	-212.9451	39.361958	1117.9927	-253.76707	23.292603	1295.317	-35.528271	34.321594	1106.4764	6.0968027	-50.432697	1308.3506	-251.1456	192.192	1361.5576	-114.09637	249.16628	1215.1077	-97.394089	277.40939	1034.027	-119.12077	241.46753	937.75806	-45.760658	219.92741	842.94623	-30.80685	283.59961	837.71881	-59.410175	270.61081	762.38934	-12.215367	-126.5177	1357.9093	-138.06932	-195.00185	1140.3834	-113.80334	-210.14662	1034.6525	-159.23122	-194.58545	972.98138	-74.644608	-171.1306	820.41559	-44.503468	-226.68423	820.40991	-96.006088	-215.23669	754.31085	-30.708345	162.97687	929.72089	-49.725399	-115.12413	923.96021	-59.462212	84.561455	960.78351	-253.43066	-24.945614	954.75494	-258.18951
